<svg id="Layer_1" enable-background="new 0 0 512 512" height="512" viewBox="0 0 512 512" width="512" xmlns="http://www.w3.org/2000/svg"><g><path d="m436.17 151.948c-35.96-62.17-103.18-104-180.17-104s-144.21 41.83-180.17 104v208c35.96 62.17 103.18 104 180.17 104s144.21-41.83 180.17-104z" fill="#f3d4b7"/><path d="m436.17 151.948v208c-35.96 62.17-103.18 104-180.17 104-10.19 0-20.2-.73-30-2.15 64.23-9.28 118.97-47.91 150.17-101.85v-208c-31.2-53.94-85.94-92.57-150.17-101.85 9.8-1.42 19.81-2.15 30-2.15 76.99 0 144.21 41.83 180.17 104z" fill="#e1c3a7"/><path d="m464 359.948h-416c-17.673 0-32-14.327-32-32v-144c0-17.673 14.327-32 32-32h416c17.673 0 32 14.327 32 32v144c0 17.673-14.327 32-32 32z" fill="#9af9ff"/><path d="m496 183.948v144c0 17.67-14.33 32-32 32h-48c17.67 0 32-14.33 32-32v-144c0-17.67-14.33-32-32-32h48c17.67 0 32 14.33 32 32z" fill="#86effd"/><path d="m440 223.948c8.837 0 16-7.164 16-16s-7.163-16-16-16h-56c-8.837 0-16 7.164-16 16v96c0 8.836 7.163 16 16 16h56c8.837 0 16-7.164 16-16s-7.163-16-16-16h-40v-16h24c8.837 0 16-7.164 16-16s-7.163-16-16-16h-24v-16z"/><path d="m336 223.948c8.837 0 16-7.164 16-16s-7.163-16-16-16h-56c-8.837 0-16 7.164-16 16v96c0 8.836 7.163 16 16 16h56c8.837 0 16-7.164 16-16s-7.163-16-16-16h-40v-16h24c8.837 0 16-7.164 16-16s-7.163-16-16-16h-24v-16z"/><path d="m128 191.948h-56c-8.837 0-16 7.164-16 16v96c0 8.836 7.163 16 16 16s16-7.164 16-16v-32h24c8.837 0 16-7.164 16-16s-7.163-16-16-16h-24v-16h40c8.837 0 16-7.164 16-16s-7.163-16-16-16z"/><path d="m208 191.948h-32c-8.837 0-16 7.164-16 16v96c0 8.836 7.163 16 16 16s16-7.164 16-16v-32h16c4.411 0 8 3.589 8 8v24c0 8.836 7.163 16 16 16s16-7.164 16-16v-24c0-8.998-2.988-17.31-8.022-24 19.65-26.116 1.059-64-31.978-64zm-16 48v-16h16c4.411 0 8 3.589 8 8s-3.589 8-8 8z"/><path d="m464 135.948h-18.856c-87.515-137.652-289.78-139.215-378.288 0h-18.856c-26.468 0-48 21.533-48 48v144c0 26.467 21.532 48 48 48h18.856c88.092 138.56 290.179 138.587 378.288 0h18.856c26.468 0 48-21.533 48-48v-144c0-26.467-21.532-48-48-48zm-58.162 0h-299.676c76.953-95.759 222.493-96.045 299.676 0zm-299.676 240h299.677c-76.954 95.759-222.494 96.045-299.677 0zm373.838-48c0 8.822-7.178 16-16 16h-416c-8.822 0-16-7.178-16-16v-144c0-8.822 7.178-16 16-16h416c8.822 0 16 7.178 16 16z"/></g></svg>